<svg id="Layer_1" viewBox="0 0 24 24" xmlns="http://www.w3.org/2000/svg" data-name="Layer 1"><path d="m14.5 2.5c0 1.381-1.119 2.5-2.5 2.5s-2.5-1.119-2.5-2.5 1.119-2.5 2.5-2.5 2.5 1.119 2.5 2.5zm1.5 7.5c0-2.206-1.794-4-4-4s-4 1.794-4 4c0 .552.448 1 1 1h6c.552 0 1-.448 1-1zm-13.5-1c1.381 0 2.5-1.119 2.5-2.5s-1.119-2.5-2.5-2.5-2.5 1.119-2.5 2.5 1.119 2.5 2.5 2.5zm2.5 14c0 .552-.448 1-1 1h-3c-.552 0-1-.448-1-1s.448-1 1-1h3c.552 0 1 .448 1 1zm14-16.5c0-1.381 1.119-2.5 2.5-2.5s2.5 1.119 2.5 2.5-1.119 2.5-2.5 2.5-2.5-1.119-2.5-2.5zm-10 14v2.5c0 .552-.448 1-1 1s-1-.448-1-1v-2.5c0-.276-.224-.5-.5-.5 0 0-3.535 0-3.552-.001-1.63-.028-2.948-1.362-2.948-2.999v-4.5c0-1.381 1.119-2.5 2.5-2.5s2.5 1.119 2.5 2.5v5.5h1.5c1.378 0 2.5 1.122 2.5 2.5zm8.5-2.5h1.5v-5.5c0-1.381 1.119-2.5 2.5-2.5s2.5 1.119 2.5 2.5v4.5c0 1.637-1.318 2.971-2.948 2.999-.017 0-3.552.001-3.552.001-.276 0-.5.224-.5.5v2.5c0 .552-.448 1-1 1s-1-.448-1-1v-2.5c0-1.378 1.122-2.5 2.5-2.5zm6.5 5c0 .552-.448 1-1 1h-3c-.552 0-1-.448-1-1s.448-1 1-1h3c.552 0 1 .448 1 1zm-8-8h-8c-.552 0-1-.448-1-1s.448-1 1-1h8c.552 0 1 .448 1 1s-.448 1-1 1z"/></svg>